<svg width="16" height="16" viewBox="0 0 16 16" fill="none" xmlns="http://www.w3.org/2000/svg">
<g id="ant-design:comment-outlined">
<path id="Vector" d="M8.95312 6.57812C8.59219 6.57812 8.3125 6.85781 8.3125 7.20312C8.3125 7.54844 8.59219 7.82812 8.95312 7.82812C9.28281 7.82812 9.5625 7.54844 9.5625 7.20312C9.5625 6.85781 9.28281 6.57812 8.95312 6.57812ZM4.57812 6.57812C4.21719 6.57812 3.9375 6.85781 3.9375 7.20312C3.9375 7.54844 4.21719 7.82812 4.57812 7.82812C4.90781 7.82812 5.1875 7.54844 5.1875 7.20312C5.1875 6.85781 4.90781 6.57812 4.57812 6.57812Z" fill="white"/>
<path id="Vector_2" d="M13.9688 5.39065C13.2172 4.3594 12.1672 3.67034 11.0156 3.3594V3.36097C10.7484 3.06409 10.4469 2.79065 10.1094 2.5469C7.55157 0.687528 3.96094 1.25472 2.09376 3.81253C0.589068 5.89065 0.65313 8.68597 2.18751 10.6719L2.20001 12.7438C2.20001 12.7938 2.20782 12.8438 2.22344 12.8907C2.30626 13.1547 2.58751 13.3 2.85001 13.2172L4.82813 12.5938C5.35157 12.7797 5.89219 12.886 6.42969 12.9157L6.42188 12.9219C7.81407 13.936 9.63907 14.2407 11.3125 13.6875L13.2984 14.3344C13.3484 14.35 13.4 14.3594 13.4531 14.3594C13.7297 14.3594 13.9531 14.136 13.9531 13.8594V11.7657C15.3297 9.8969 15.3656 7.31409 13.9688 5.39065ZM5.04688 11.4844L4.85938 11.4063L3.31251 11.8907L3.29688 10.2657L3.17188 10.125C1.85001 8.51253 1.76251 6.18909 3.00001 4.4844C4.50626 2.41878 7.39375 1.96253 9.45313 3.45315C11.5188 4.95472 11.9766 7.83753 10.4844 9.89065C9.23282 11.6078 6.99219 12.2422 5.04688 11.4844ZM12.9375 11.2188L12.8125 11.375L12.8281 13L11.2969 12.4844L11.1094 12.5625C10.2344 12.8875 9.30157 12.9141 8.43751 12.6719L8.43438 12.6703C9.58907 12.3157 10.6359 11.5969 11.3906 10.5625C12.5844 8.91722 12.7781 6.85003 12.0844 5.08753L12.0938 5.09378C12.4531 5.35159 12.7828 5.67347 13.0625 6.06253C14.1969 7.61878 14.1328 9.73753 12.9375 11.2188Z" fill="white"/>
<path id="Vector_3" d="M6.76562 6.57812C6.40469 6.57812 6.125 6.85781 6.125 7.20312C6.125 7.54844 6.40469 7.82812 6.76562 7.82812C7.09531 7.82812 7.375 7.54844 7.375 7.20312C7.375 6.85781 7.09531 6.57812 6.76562 6.57812Z" fill="white"/>
</g>
</svg>
