<svg width="14" height="17" viewBox="0 0 14 17" fill="none" xmlns="http://www.w3.org/2000/svg">
<g id="heart (2) 1" clip-path="url(#clip0_1_123)">
<g id="Group">
<path id="Vector" d="M12.8753 3.30283C11.3527 1.59867 8.87573 1.59867 7.35353 3.30283L6.99997 3.69843L6.64662 3.30283C5.12442 1.59844 2.64723 1.59844 1.12503 3.30283C-0.366261 4.9724 -0.375945 7.61883 1.10258 9.45886C2.45109 11.1365 6.42822 14.761 6.59696 14.9144C6.71152 15.0186 6.84936 15.0694 6.98637 15.0694C6.99091 15.0694 6.99544 15.0694 6.99976 15.0691C7.14152 15.0765 7.2843 15.0221 7.40257 14.9144C7.57131 14.761 11.5489 11.1365 12.8978 9.45863C14.3761 7.61883 14.3664 4.9724 12.8753 3.30283ZM11.9789 8.53297C10.9274 9.84062 8.03737 12.5376 6.99976 13.4946C5.96216 12.5378 3.0727 9.84108 2.0215 8.5332C0.99008 7.24977 0.980396 5.42197 1.99904 4.28155C2.51929 3.69935 3.2025 3.40802 3.88572 3.40802C4.56894 3.40802 5.25216 3.69912 5.7724 4.28155L6.54957 5.15163C6.64208 5.25519 6.7587 5.31701 6.88109 5.3387C7.07971 5.38644 7.29522 5.32439 7.44975 5.15186L8.22733 4.28155C9.26803 3.11692 10.9608 3.11715 12.0009 4.28155C13.0195 5.42197 13.0099 7.24977 11.9789 8.53297Z" fill="white"/>
</g>
</g>
<defs>
<clipPath id="clip0_1_123">
<rect width="14" height="15.6736" fill="white" transform="translate(0 0.710327)"/>
</clipPath>
</defs>
</svg>
