<svg xmlns="http://www.w3.org/2000/svg" width="12" height="14" viewBox="0 0 12 14" fill="none">
  <path fill-rule="evenodd" clip-rule="evenodd" d="M8.65065 3.55329C8.16063 3.55329 7.76342 3.99881 7.76342 4.54842V5.34464H10.6469V8.3798H7.71903V9.6735C7.71903 12.0643 5.9911 14.0024 3.85951 14.0024C1.72798 14.0024 0 12.0643 0 9.6735C0 7.28276 1.72798 5.34464 3.85951 5.34464H5.10167V4.54842C5.10167 2.35006 6.69059 0.567871 8.65065 0.567871H12V3.55329H8.65065ZM5.10156 5.36946V8.37983H7.71893V5.36946H5.10156ZM2.66162 9.67354C2.66162 8.93156 3.19791 8.33012 3.85939 8.33012H5.05721V9.67354C5.05721 10.4155 4.52093 11.017 3.85939 11.017C3.19791 11.017 2.66162 10.4155 2.66162 9.67354Z" fill="#03DB80"/>
</svg>